<svg width="159" height="27" viewBox="0 0 159 27" fill="none" xmlns="http://www.w3.org/2000/svg">
<path d="M19.1148 19.955C19.176 20.2866 19.0307 20.6253 18.7323 20.8299C18.434 21.0274 18.0439 21.0556 17.7149 20.9004L13.5076 18.8615L9.30037 20.9004C9.15502 20.971 9.00203 20.9992 8.84904 20.9992C8.65015 20.9992 8.45126 20.9427 8.28297 20.8299C7.98464 20.6323 7.83929 20.2937 7.90049 19.955L8.7037 15.6302L5.29197 12.5683C5.03189 12.3284 4.93244 11.9757 5.04719 11.6582C5.16193 11.3337 5.46027 11.1008 5.82745 11.0515L10.532 10.4236L12.6356 6.49386C12.7962 6.19049 13.1328 6 13.5 6C13.8672 6 14.2038 6.19049 14.3644 6.49386L16.468 10.4236L21.1726 11.0515C21.5397 11.1008 21.8381 11.3337 21.9528 11.6582C22.0676 11.9827 21.9681 12.3355 21.708 12.5683L18.304 15.6302L18.9159 18.9109L19.1072 19.955H19.1148Z" fill="#FF993A"/>
<path d="M52.1148 19.955C52.176 20.2866 52.0307 20.6253 51.7323 20.8299C51.434 21.0274 51.0439 21.0556 50.7149 20.9004L46.5076 18.8615L42.3004 20.9004C42.155 20.971 42.002 20.9992 41.849 20.9992C41.6502 20.9992 41.4513 20.9427 41.283 20.8299C40.9846 20.6323 40.8393 20.2937 40.9005 19.955L41.7037 15.6302L38.292 12.5683C38.0319 12.3284 37.9324 11.9757 38.0472 11.6582C38.1619 11.3337 38.4603 11.1008 38.8274 11.0515L43.532 10.4236L45.6356 6.49386C45.7962 6.19049 46.1328 6 46.5 6C46.8672 6 47.2038 6.19049 47.3644 6.49386L49.468 10.4236L54.1726 11.0515C54.5397 11.1008 54.8381 11.3337 54.9528 11.6582C55.0676 11.9827 54.9681 12.3355 54.708 12.5683L51.304 15.6302L51.9159 18.9109L52.1072 19.955H52.1148Z" fill="#FF993A"/>
<path d="M85.1148 19.955C85.176 20.2866 85.0307 20.6253 84.7323 20.8299C84.434 21.0274 84.0439 21.0556 83.7149 20.9004L79.5076 18.8615L75.3004 20.9004C75.155 20.971 75.002 20.9992 74.849 20.9992C74.6502 20.9992 74.4513 20.9427 74.283 20.8299C73.9846 20.6323 73.8393 20.2937 73.9005 19.955L74.7037 15.6302L71.292 12.5683C71.0319 12.3284 70.9324 11.9757 71.0472 11.6582C71.1619 11.3337 71.4603 11.1008 71.8274 11.0515L76.532 10.4236L78.6356 6.49386C78.7962 6.19049 79.1328 6 79.5 6C79.8672 6 80.2038 6.19049 80.3644 6.49386L82.468 10.4236L87.1726 11.0515C87.5397 11.1008 87.8381 11.3337 87.9528 11.6582C88.0676 11.9827 87.9681 12.3355 87.708 12.5683L84.304 15.6302L84.9159 18.9109L85.1072 19.955H85.1148Z" fill="#FF993A"/>
<path d="M118.115 19.955C118.176 20.2866 118.031 20.6253 117.732 20.8299C117.434 21.0274 117.044 21.0556 116.715 20.9004L112.508 18.8615L108.3 20.9004C108.155 20.971 108.002 20.9992 107.849 20.9992C107.65 20.9992 107.451 20.9427 107.283 20.8299C106.985 20.6323 106.839 20.2937 106.9 19.955L107.704 15.6302L104.292 12.5683C104.032 12.3284 103.932 11.9757 104.047 11.6582C104.162 11.3337 104.46 11.1008 104.827 11.0515L109.532 10.4236L111.636 6.49386C111.796 6.19049 112.133 6 112.5 6C112.867 6 113.204 6.19049 113.364 6.49386L115.468 10.4236L120.173 11.0515C120.54 11.1008 120.838 11.3337 120.953 11.6582C121.068 11.9827 120.968 12.3355 120.708 12.5683L117.304 15.6302L117.916 18.9109L118.107 19.955H118.115Z" fill="#FF993A"/>
<path d="M151.115 19.955C151.176 20.2866 151.031 20.6253 150.732 20.8299C150.434 21.0274 150.044 21.0556 149.715 20.9004L145.508 18.8615L141.3 20.9004C141.155 20.971 141.002 20.9992 140.849 20.9992C140.65 20.9992 140.451 20.9427 140.283 20.8299C139.985 20.6323 139.839 20.2937 139.9 19.955L140.704 15.6302L137.292 12.5683C137.032 12.3284 136.932 11.9757 137.047 11.6582C137.162 11.3337 137.46 11.1008 137.827 11.0515L142.532 10.4236L144.636 6.49386C144.796 6.19049 145.133 6 145.5 6C145.867 6 146.204 6.19049 146.364 6.49386L148.468 10.4236L153.173 11.0515C153.54 11.1008 153.838 11.3337 153.953 11.6582C154.068 11.9827 153.968 12.3355 153.708 12.5683L150.304 15.6302L150.916 18.9109L151.107 19.955H151.115Z" fill="#FFC999"/>
<mask id="mask0_564_8207" style="mask-type:alpha" maskUnits="userSpaceOnUse" x="137" y="4" width="10" height="18">
<rect width="10" height="18" transform="matrix(-1 0 0 1 147 4)" fill="#D9D9D9"/>
</mask>
<g mask="url(#mask0_564_8207)">
<path d="M151.115 19.955C151.176 20.2866 151.031 20.6253 150.732 20.8299C150.434 21.0274 150.044 21.0556 149.715 20.9004L145.508 18.8615L141.3 20.9004C141.155 20.971 141.002 20.9992 140.849 20.9992C140.65 20.9992 140.451 20.9427 140.283 20.8299C139.985 20.6323 139.839 20.2937 139.9 19.955L140.704 15.6302L137.292 12.5683C137.032 12.3284 136.932 11.9757 137.047 11.6582C137.162 11.3337 137.46 11.1008 137.827 11.0515L142.532 10.4236L144.636 6.49386C144.796 6.19049 145.133 6 145.5 6C145.867 6 146.204 6.19049 146.364 6.49386L148.468 10.4236L153.173 11.0515C153.54 11.1008 153.838 11.3337 153.953 11.6582C154.068 11.9827 153.968 12.3355 153.708 12.5683L150.304 15.6302L150.916 18.9109L151.107 19.955H151.115Z" fill="#FF993A"/>
</g>
</svg>
