<svg width="40" height="40" viewBox="0 0 40 40" fill="none" xmlns="http://www.w3.org/2000/svg">
<g clip-path="url(#clip0_2890_33562)">
<rect width="40" height="40" rx="8.75" fill="#2545FF"/>
<path d="M27.1927 20.1799C26.8386 19.2644 26.3041 18.4293 25.6211 17.7242C24.9243 17.0168 24.098 16.4499 23.1872 16.0544C22.1665 15.6495 21.0766 15.4474 19.9785 15.4596C18.8896 15.4302 17.807 15.6329 16.8025 16.0544C15.8896 16.4422 15.0666 17.0144 14.3851 17.7352C13.7187 18.448 13.1945 19.2815 12.8407 20.1908C12.1095 22.0817 12.1095 24.1772 12.8407 26.068C13.2028 26.965 13.7263 27.7881 14.3851 28.4964C15.0664 29.216 15.8895 29.7865 16.8025 30.1717C17.8108 30.5809 18.8905 30.785 19.9785 30.772C21.077 30.7831 22.1671 30.5792 23.1872 30.1717C24.1101 29.7869 24.944 29.2167 25.6374 28.4964C26.3281 27.808 26.8639 26.9801 27.2091 26.068C27.933 24.1759 27.933 22.083 27.2091 20.1908L27.1927 20.1799ZM24.5897 25.1294C24.364 25.7337 24.0251 26.2893 23.5911 26.7665C23.142 27.2277 22.6084 27.5983 22.0194 27.858C21.369 28.1353 20.6692 28.2783 19.9622 28.2783C19.2551 28.2783 18.5553 28.1353 17.9048 27.858C17.3232 27.5993 16.7984 27.2285 16.3605 26.7665C15.9253 26.2902 15.5862 25.7344 15.3619 25.1294C15.1158 24.4984 14.9935 23.8258 15.0017 23.1485C14.9984 22.4712 15.1225 21.7992 15.3673 21.1676C15.6023 20.5679 15.9402 20.0139 16.366 19.5305C16.7938 19.0462 17.3204 18.6592 17.9103 18.3955C18.5607 18.1181 19.2605 17.9751 19.9676 17.9751C20.6747 17.9751 21.3745 18.1181 22.0249 18.3955C22.6155 18.6716 23.1487 19.0567 23.5965 19.5305C24.0222 20.0139 24.3602 20.5679 24.5952 21.1676C24.843 21.7984 24.9671 22.4709 24.9608 23.1485C24.9599 23.826 24.8341 24.4976 24.5897 25.1294Z" fill="#F0E9E1"/>
<path d="M23.3728 10.33C23.3657 10.5455 23.3029 10.7556 23.1906 10.9397C23.0783 11.1238 22.9202 11.2757 22.7318 11.3806C22.5433 11.4856 22.3309 11.5399 22.1153 11.5385C21.8996 11.537 21.688 11.4797 21.501 11.3723C21.1954 11.1813 20.4969 10.2317 20.0549 9.89341C17.9048 8.2563 14.2323 9.89341 14.336 12.6219H16.6388C16.6499 12.3817 16.7301 12.1497 16.8698 11.9539C17.0094 11.7581 17.2026 11.6068 17.4261 11.5181C17.6496 11.4293 17.894 11.407 18.13 11.4537C18.3659 11.5005 18.5833 11.6143 18.7561 11.7815C19.112 12.2467 19.5102 12.6778 19.9458 13.0694C22.205 14.6738 25.7848 13.0312 25.6756 10.3081L23.3728 10.33Z" fill="#F0E9E1"/>
</g>
<defs>
<clipPath id="clip0_2890_33562">
<rect width="40" height="40" rx="8.75" fill="white"/>
</clipPath>
</defs>
</svg>
